<mxfile host="app.diagrams.net" modified="2024-06-04T12:30:23.605Z" agent="Mozilla/5.0 (Windows NT 10.0; Win64; x64) AppleWebKit/537.36 (KHTML, like Gecko) Chrome/125.0.0.0 Safari/537.36" version="24.4.13" etag="5NTW9IlEwDpclOs5wKtc" type="github">
  <diagram name="Page-1" id="R0bxW1IgboL0If2HKN1b">
    <mxGraphModel>
      <root>
        <mxCell id="0" />
        <mxCell id="1" parent="0" />
      </root>
    </mxGraphModel>
  </diagram>
</mxfile>
